<?xml version="1.0" encoding="utf-8"?>
<!-- Generator: Adobe Illustrator 20.1.0, SVG Export Plug-In . SVG Version: 6.00 Build 0)  -->
<svg version="1.1" id="Layer_1" xmlns="http://www.w3.org/2000/svg" xmlns:xlink="http://www.w3.org/1999/xlink" x="0px" y="0px"
	 viewBox="0 0 864 864" style="enable-background:new 0 0 864 864;" xml:space="preserve">
<style type="text/css">
	.st0{fill:#118000;}
	.st1{fill:#D90000;}
	.st2{fill:#7CBDA1;}
	.st3{fill:#FF9F00;}
	.st4{fill:#2A3940;}
</style>
<path class="st0" d="M794,436.4c-8.5-4.6-18,0.9-21.6,9.2c-2.6,5.9-2.3,12.9,0.3,18.8c0.9,2.2,2.2,4.3,3.2,6.5
	c4.9,11.1,5,27.3-1.5,37.7c-0.6,1-1.5,2-2.6,2c-3.7-0.1-3.9-9.1-4.7-11.5c-1.7-5.1-4.7-9.8-8.6-13.5c-2.1-2-4.8-3.8-7.7-3.6
	c-4.1,0.3-6.8,4.5-8,8.5c-1.1,4-1.3,8.4,0.3,12.2c2.4,5.7,8.4,9.1,12.2,14c7,8.8,6.6,22.4,4.6,32.8c-1.2,6.6-4.7,12.7-9.6,17.2
	c-0.8,0.7-1.8,1.5-2.9,1.5c-3,0-3.2-8.7-3.6-10.8c-0.7-4.2-1.5-8.4-3.1-12.4c-2.3-5.7-7.4-11.3-13.4-10.3
	c-7.7,1.3-10.6,10.8-7.5,17.1c1.5,3.1,3.9,5.7,6.1,8.4c2,2.4,3.8,4.9,5.6,7.6c2,3,3.8,6.3,4,9.9c0.1,2.2-0.4,4.3-0.9,6.4
	c-1.9,6.6-4.7,13.1-8.8,18.6c-6.1,8.3-13.2,15.9-21.1,22.6c-2.8,2.4-5.8,4.8-8,7.8c-2.2,3-3.4,7-2.3,10.6c2.2,7.5,8.4,5.5,12.8,2
	c2.9-2.3,5.4-5.7,7.7-8.5c2.7-3.2,5.2-6.6,7.6-10.1c3.4-4.9,7.3-9.4,11.6-13.7c2.5-2.5,5.1-5.1,8.4-6.4c3.4-1.4,7.3-1.4,11-1.2
	c6.8,0.4,13.5,1.3,20.1,3c3.4,0.9,7,2.1,10.5,1.5c7.9-1.2,8.7-10,3.8-15.1c-3.9-4.1-9.9-5.4-15.5-4.9c-5.6,0.5-10.9,2.7-16,4.9
	c-1.7,0.7-3.5,2.1-4.9-0.3c-0.7-1.3-0.6-2.8-0.2-4.3c0.4-1.7,1.2-3.3,2.2-4.8c6.2-9,17.9-11,27.9-12.2c7.7-1,15.6-1.6,22.9-4.2
	c2.4-0.9,4.8-2,6.4-4c3.5-4.5,0.9-11.7-4.1-14.6c-5-2.8-11.2-2.2-16.6-0.3c-4.2,1.5-7.8,4.7-12.4,4.8c-1.4,0-2.9-0.5-3.7-1.6
	c-2.8-4.2,3.5-12.1,6.2-14.8c3.7-3.9,9-8.1,14.1-9.9c5.7-2,11.5-3.4,17-6.2c3.8-2,7.4-4.5,9.7-8.2c2.3-3.6,3-8.5,1-12.2
	c-2.4-4.4-8-6.4-13-5.7c-5.3,0.7-9.3,3.7-13.6,6.6c-6,4.1-3.4-7.7-2.5-10.4c1.7-5.5,4.2-10.9,6.2-16.3c2.1-6.5,3.1-13,3.3-19.8
	c0.1-5.1,0.1-10-2.3-14.6C798.5,439.8,796.4,437.7,794,436.4z"/>
<path class="st0" d="M313.6,737.7c3.7,1.6,7.9,2.3,11.7,3.2c4.3,1,8.6,1.8,13,2.4c5.8,0.8,11.9,1.5,16.5,5c3.8,2.9,6,7.4,8.1,11.8
	c3.9,8.1,7.8,16.3,11.7,24.4c3.1,6.4,7.8,13.8,14.8,13.3c4.2-0.3,7.8-3.7,9.3-7.7c2-5.5,0.5-11.9-2.6-16.9c-3.1-5-7.6-9-12.1-12.8
	c-1.5-1.3-6.1-4-6-6.3c0.2-3.4,7.9-2.7,10.1-2.4c4.1,0.5,8,2,11.5,4.2c6.9,4.4,11.9,11.2,16.4,18.1c4.5,6.8,8.7,14,14.6,19.7
	c1.9,1.9,4.1,3.6,6.8,4.1c5.9,1.2,11.5-4.6,11.8-10.6c0.4-6-3.1-11.6-7.4-15.8c-4.3-4.2-9.5-7.4-13.8-11.5c-1-0.9-2-2.2-1.5-3.5
	c0.2-0.6,0.7-1,1.3-1.4c8.2-5.8,19.9-2.7,27.9,3.3c8.1,5.9,14.1,14.3,22.2,20.3c3.6,2.7,7.7,4.9,12.2,5.4c4.5,0.5,9.3-1.1,12-4.8
	c3.1-4.3,2.3-10.5-0.6-14.9c-2.9-4.4-7.6-7.3-12.4-9.6c-1.5-0.7-5.7-3.1-4.8-5.2c0.7-1.7,2.7-1.5,4.2-1.6c2.2-0.1,4.5-0.2,6.7-0.4
	c6.9-0.5,13.8-0.8,20.6-1.8c7.1-1,13.7-3,20.2-6.1c4.8-2.3,9.5-4.5,12.7-9c1.7-2.3,2.6-5.2,2.7-8.1c0.2-3.8-1.2-7.6-4.3-9.8
	c-4.9-3.4-11.6-1.7-17,0.7c-18.5,8.3-33.6,24-53.5,28.3c-2.8,0.6-6.5,0.6-7.7-2.1c-1.4-3,1.7-6,4.3-8c4.3-3.3,8.1-7.1,11.5-11.3
	c2.2-2.8,4.3-5.8,4.8-9.3c0.5-3.5-1-7.5-4.3-8.9c-2.3-1-5-0.5-7.4,0.4c-15.7,5.5-24.1,21.9-35.8,33.7c-2.6,2.7-5.5,5.2-8.9,6.9
	c-8.2,4.3-18.1,3.6-27.4,2.8c-1.4-0.1-3-0.4-3.8-1.6c-1.1-1.8,0.4-4,2-5.4c6.5-5.8,14.5-9.9,20.3-16.4c4.3-4.8,7.2-12.2,3.4-17.4
	c-2.6-3.6-7.5-4.8-11.8-3.9c-5.7,1.1-10.8,3.5-14.8,7.9c-1.2,1.3-2.3,2.8-3.3,4.2c-1.8,2.5-3.7,4.9-5.1,7.7
	c-1.4,2.9-2.6,5.9-4.5,8.6c-6.1,8.5-21,9.4-30.2,6.5c-3.8-1.2-7.3-3.1-10.8-4.9c-8-4.2-16.3-8.1-25.3-9.4c-3.3-0.5-8.4-0.5-11.1,1.9
	c-1.9,1.6-3.5,3.3-3.3,5.8c0.1,0.8,0.1,1.5,0.3,2.2c0.6,2.2,2.3,4,4.3,5.1C312.5,737.2,313.1,737.5,313.6,737.7z"/>
<path class="st0" d="M647.7,198.9c1.5-0.7,2.9-1.9,4.3-2.9c1.5-1.1,3-2.3,4.4-3.5c1.9-1.6,3.8-3.4,6.2-4c2-0.4,4.1,0.1,6.1,0.7
	c3.7,1,7.5,2,11.2,3c2.9,0.8,6.6,1.3,8.4-1.1c1.1-1.5,1-3.6,0.1-5.1c-1.2-2.2-3.7-3.5-6.2-3.9c-2.5-0.4-5,0-7.5,0.3
	c-0.9,0.1-3,0.9-3.7,0.2c-1-1,1.3-3.3,2-3.9c1.3-1.2,2.9-2,4.6-2.5c3.4-1,6.9-0.7,10.4-0.3s7,1.1,10.5,0.7c1.1-0.1,2.3-0.3,3.2-1
	c2-1.6,1.7-5-0.1-6.8c-1.8-1.8-4.6-2.2-7.2-2c-2.6,0.2-5,1-7.6,1.3c-0.6,0.1-1.3,0-1.6-0.5c-0.1-0.2-0.1-0.5-0.1-0.8
	c0.4-4.3,4.7-7.2,8.8-8.1s8.6-0.6,12.7-1.5c1.9-0.4,3.7-1.1,5.1-2.5c1.4-1.3,2.2-3.3,1.8-5.2c-0.5-2.2-2.8-3.7-5-4
	c-2.2-0.3-4.5,0.4-6.6,1.3c-0.7,0.3-2.6,1-3,0.1c-0.4-0.7,0.3-1.3,0.7-1.8c0.6-0.7,1.2-1.5,1.7-2.3c1.7-2.4,3.6-4.7,5.1-7.2
	c1.6-2.6,2.8-5.3,3.6-8.2c0.6-2.2,1.2-4.3,0.6-6.6c-0.3-1.2-1-2.3-1.9-3.1c-1.2-1.1-2.8-1.7-4.4-1.3c-2.5,0.6-3.8,3.3-4.5,5.7
	c-2.5,8.3-1.6,17.6-5.7,25.2c-0.6,1.1-1.6,2.3-2.8,1.9c-1.4-0.4-1.5-2.2-1.4-3.6c0.1-2.3,0-4.6-0.5-6.9c-0.3-1.5-0.7-3-1.7-4.1
	c-1-1.1-2.7-1.7-4.1-1.1c-1,0.5-1.5,1.5-1.9,2.5c-2.6,6.6,0.4,13.9,1,21c0.1,1.6,0.1,3.2-0.2,4.8c-0.9,3.9-3.9,6.9-6.7,9.7
	c-0.4,0.4-1,0.9-1.6,0.8c-0.9-0.1-1.2-1.2-1.2-2.1c-0.1-3.7,0.8-7.5,0.4-11.1c-0.3-2.7-2-5.7-4.7-6c-1.9-0.2-3.6,1.1-4.6,2.8
	c-1.2,2.2-1.9,4.5-1.6,7c0.1,0.8,0.3,1.5,0.4,2.3c0.3,1.3,0.6,2.6,1.1,3.8c0.5,1.3,1.2,2.5,1.5,3.8c1.1,4.4-2.8,9.4-6.3,11.6
	c-1.4,0.9-3,1.5-4.6,2.1c-3.6,1.4-7.2,3-10.1,5.6c-1.1,0.9-2.5,2.6-2.5,4.1c0,1.1,0.1,2.1,1,2.7c0.3,0.2,0.5,0.4,0.8,0.5
	c0.9,0.4,1.9,0.4,2.8,0C647.2,199.1,647.5,199,647.7,198.9z"/>
<g>
	<path class="st1" d="M204.9,193.2c0-7.6-6.6-14.9-11.9-9.7c-19.2,15.3-16.2,101.8-2.9,103.6c5.4,0.8,14.5-1.8,14.5-18.4
		c0-9.9,8.3-6.2,8.4-2.3c0.9,21.4-8.8,30.6-19.6,31c-25,1-35.4-31.4-38.1-48.9c-3.7-24,3.7-61.3,27.9-72.5
		c12.9-6,29.7,0.5,28.8,18.1C211.9,197.1,204.9,196.2,204.9,193.2z"/>
	<path class="st1" d="M238,270.6c26.4-63.6,44.4-45.4,47.8-33.6c4.5,11.9-7.3,50.1-2.3,62.6c6,14.9-9.3,11.6-14.1,3.2
		c-10.2-17.7-7.8-34.5-0.6-65.4c2.5-10.8-13.5,12.5-34,59.8c-2.7,6.1-12.5,6.2-16.8,0.8c-5.1-6.5,0.1-107.2,1-111.1
		c2.7-12,18.9-14.5,24.9-3.3L238,270.6z"/>
	<path class="st1" d="M350,208.4c7.3,3.1,3.2,15.8-2.3,14.1c-8-2.8-20.4,14.1-23.8,18.1c-1.8,2-1.4,47.7-2.8,55.8
		c-0.4,4.2-22.7,7.9-22.2-3.2c1.4-31.1-0.1-75.2-0.1-79c0-9.3,23.7-11.1,24.9,0c0.3,2,0.3,11.2,0,13.1
		C329.9,216.1,340,204.2,350,208.4z"/>
	<path class="st1" d="M376.8,288.1c4.5-0.4,4.1,7.4-1.9,6.1c-16.6-2.7-24.1-22.7-15.9-82.2c1-7.4,24-10.3,23.5-3.4
		C378.7,245.6,370,286,376.8,288.1z M370,198.3c-10.8,0.5-10.1-20.4,4-19.2C380.4,179.6,378.4,198,370,198.3z"/>
	<path class="st1" d="M436.7,221.2c-1.5,6.5-8.4,2.5-8.2-0.6c1.4-22.3-19-23.7-11.5-5.7c26.6,63.2,11.5,94.2-14.5,89.1
		c-15.9-3.2-15.9-30.5,5.1-40.4c-6.5-27.1-22.3-47-10.2-63C414,182.9,441.4,191.5,436.7,221.2z M409.3,270.7
		c-15.9,12.9-10.5,26.6-3.7,24C411.7,292.3,411.2,280.3,409.3,270.7z"/>
	<path class="st1" d="M439.5,190.4c-4.3,0.5-3.6-7.3,0.3-7.1l11.3-1c0.9-5.6,0.5-10.1,2.3-24c2.7-7.6,25.5-9.8,25,1.4
		c-0.8,7.6-2.2,17.3-1.8,22c4.3,0.8,9-0.3,11.2-0.1c2.7,0.1,2.5,6.2,0.4,7c-3.6,1.9-8.5,2.3-13.1,2.2c-2.2,31-10.7,99.7-0.9,107.7
		c4,3.2,3.2,9.2-4.3,9.2c-27.8,0-19.6-103.5-19.4-117.4L439.5,190.4z"/>
	<path class="st1" d="M534.3,206.2c10.8,0.8,17.1,14.1,19.6,38.2c9-27,13.6-37.5,22.9-36.5c21,1.9,25,39.9,15.5,82.1
		c-1.4,6.5-9.2,8.3-14.9-0.4c-7-10.7-0.3-79.4-3.3-71.5c-12.5,21.2-17.2,45-19.6,50c-4,8.3-19,6.4-18.9-3.1
		c0.3-13.6-0.5-52-2.8-48.6c-4.7,7.3-16.6,85.8-22.9,95.8c-2.7,4.3-17.6,4.3-17.3-2l0.1-103.4c0-10.3,20.5-8,20.9-0.4
		c0.6,14.1-4.1,72.9-3.7,76.3C521.4,205.6,530.5,206.2,534.3,206.2z"/>
	<path class="st1" d="M633.5,274.6c-22.8,10.8-32.5-14.7-27-34.8c6.1-22.7,26.4-34.2,47.3-23.7c4.1-9,26.9-7.5,26.9,0.4
		c-5.1,19.6-15.9,68.3-10.2,72c3.8,2.4-1,7.9-6.1,4.3c-13.8-9.4-14.5-30.3-7.5-56.1C647.7,258.4,638.6,272.1,633.5,274.6z
		 M652.1,222.2c-15.2,1.7-33.6,48.7-22.7,45.9C636.9,266.2,650.8,227.5,652.1,222.2z"/>
	<path class="st1" d="M731.3,221.2c-1.5,6.5-8.4,2.5-8.2-0.6c1.4-22.3-19-23.7-11.5-5.7c26.6,63.2,11.5,94.2-14.5,89.1
		c-15.9-3.2-15.9-30.5,5.1-40.4c-6.5-27.1-22.3-47-10.2-63C708.7,182.9,736.1,191.5,731.3,221.2z M703.9,270.7
		c-15.9,12.9-10.5,26.6-3.7,24C706.4,292.3,705.9,280.3,703.9,270.7z"/>
</g>
<g>
	<path class="st2" d="M718.2,357.1c-8.1-4-7.5-11.3-20.1-11.1c-12.6,0.1-17.6,25.6-31.1,28.8c-4.5-18.1-23-23.6-34.1-26.1
		c-11.1-2.5-18.1-5.2-28.6-17.9c-10.5-12.7-5.7-30-13.5-29.9c-7.8,0.1-3.2,19-3.2,19s-11.3-11.3-15.2-5.1
		c-3.9,6.2,5.4,15.9,5.4,15.9s-6.5-1.9-8.4,1.7c-1.9,3.6,1.2,14.1,11.1,18.3c-6.6,3.1-5.7,11.9,5.6,16.5
		c-2.4,6.9,2.1,14.5,11.2,11.7c-2,6.7,4,12.7,11.3,8.8c-1.6,7.9,8,13.6,14.4,8.4c-1,6.7,9.1,11.4,13.1,5.1c2,7,8.3,3.6,8.3,3.6
		s-1.7,9.9-8,13.4c-6.3,3.5-23.2,2.9-29.1,2.9c-5.9,0.1-4.5,9.3,1,9.2c-2.2,2.3-0.2,9.7,4.8,8.1c-1.3,4,0.4,9.5,5.1,7.9
		c0,4.7,5.4,10.2,9-0.1c3.6-10.3,12.7-20.2,33.5-20.4c20.8-0.2,30.2-6.4,37.7-20.7c7.5-14.3,1.6-27.7,3.3-36.7
		C703.5,359.6,718.2,357.1,718.2,357.1z"/>
	<path class="st2" d="M626.5,332.8c-4.2,1-5.7,6.1,0.7,8.8c6.5,2.7,19.5,5.2,29.5,11.3c9.9,6.1,12.8,16.1,12.8,16.1
		c4.1-11.2,4.9-19.1,0.9-29.4c-4.4-11-13.3-18.9-21.6-23.9c-7.3-4.4-9.9-14.1-9.9-17.5c0-3.4-0.6-11.1-6.7-11s-8.6,7.9-4.3,15.6
		c-6.6,2.7-9.5,9.8-1.9,17.3C621.4,322.3,620.6,329.3,626.5,332.8z"/>
</g>
<g>
	<path class="st2" d="M156.1,358.5c7.7-2.6,8.1-9.2,19.4-7.6c11.3,1.6,12.8,25.1,24.4,29.5c6.2-15.7,23.5-18.4,33.8-19.4
		c10.3-0.9,16.9-2.5,27.8-12.6c11-10.1,8.7-26.2,15.7-25.2c7,1,0.6,17.4,0.6,17.4s11.5-8.8,14.3-2.8c2.7,6.1-6.8,13.6-6.8,13.6
		s6-0.9,7.4,2.5c1.3,3.4-2.8,12.5-12.2,15.1c5.5,3.6,3.7,11.4-7,14.2c1.4,6.5-3.6,12.7-11.4,9.2c1,6.3-5.1,11-11.2,6.6
		c0.5,7.3-8.8,11.3-14,5.8c0.1,6.2-9.5,9.1-12.4,3c-2.7,6-7.9,2.2-7.9,2.2s0.4,9.1,5.6,13c5.2,3.9,20.4,5.3,25.8,6.1
		c5.3,0.8,3,8.9-2,8.1c1.7,2.3-1,8.8-5.3,6.7c0.7,3.7-1.5,8.5-5.5,6.4c-0.6,4.3-6,8.5-8-1.2c-2-9.7-9-19.6-27.7-22.3
		c-18.7-2.7-26.4-9.3-31.4-23.1c-5-13.7,1.9-25,1.4-33.3C169,362.5,156.1,358.5,156.1,358.5z"/>
	<path class="st2" d="M241.3,347.6c3.7,1.4,4.4,6.2-1.7,7.8c-6.1,1.6-18.2,2.3-27.8,6.6c-9.7,4.3-13.4,12.9-13.4,12.9
		c-2.3-10.6-2.1-17.8,2.7-26.5c5.2-9.4,14.2-15.4,22.2-18.9c7.1-3.1,10.6-11.5,11-14.6c0.4-3.1,1.9-9.9,7.3-9.1
		c5.4,0.8,6.8,8.1,2,14.5c5.6,3.2,7.4,10-0.3,15.7C247.1,338.8,247.1,345.2,241.3,347.6z"/>
</g>
<polygon class="st3" points="565.2,181.4 643.6,175.8 565.2,170.2 575.5,155 561.1,165.9 555.9,132 550.6,165.9 536.2,155 
	546.6,170.2 514.7,175.8 546.6,181.4 536.2,196.7 550.6,185.7 555.9,219.6 561.1,185.7 575.5,196.7 "/>
<polygon class="st3" points="232.4,734.3 284.1,725.2 232.4,716.2 249.1,691.4 225.7,709.1 217.2,619.3 208.7,709.1 185.3,691.4 
	202.1,716.2 150.3,725.2 202.1,734.3 185.3,759.1 208.7,741.3 217.2,796.3 225.7,741.3 249.1,759.1 "/>
<polygon class="st3" points="120.2,240.8 145.7,236.6 120.2,232.4 128.4,220.9 116.9,229.2 112.7,203.7 108.5,229.2 97,220.9 
	105.3,232.4 79.8,236.6 105.3,240.8 97,252.3 108.5,244.1 112.7,269.6 116.9,244.1 128.4,252.3 "/>
<polygon class="st3" points="131.4,434.9 175.2,427.7 131.4,420.5 145.6,400.7 125.8,414.9 118.5,371 111.3,414.9 91.5,400.7 
	105.7,420.5 61.9,427.7 105.7,434.9 91.5,454.7 111.3,440.5 118.5,484.4 125.8,440.5 145.6,454.7 "/>
<polygon class="st3" points="780.1,336.9 823.4,327.9 780.1,318.8 797.9,294 773.1,311.8 764.1,245.2 755,311.8 730.2,294 
	748,318.8 674.5,327.9 748,336.9 730.2,361.7 755,343.9 764.1,422.1 773.1,343.9 797.9,361.7 "/>
<polygon class="st3" points="647.7,731.7 693.9,724.1 647.7,716.5 662.6,695.6 641.8,710.6 634.1,617.8 626.5,710.6 605.6,695.6 
	620.6,716.5 574.3,724.1 620.6,731.7 605.6,752.6 626.5,737.6 634.1,783.9 641.8,737.6 662.6,752.6 "/>
<polygon class="st3" points="305.5,158.5 409.7,148.9 305.5,139.4 324.2,113.3 298.1,132 288.6,51 279.1,132 253,113.3 271.7,139.4 
	167.5,148.9 271.7,158.5 253,184.5 279.1,165.8 288.6,223.6 298.1,165.8 324.2,184.5 "/>
<path class="st4" d="M469.9,311.4c3.7-0.2,3.9,9.9-2.1,9.5C464.4,320.6,465.8,311.5,469.9,311.4z M568.8,370.1
	c-0.4,5.9-4.1,15.7-11.4,15.7c-4.7,0-9.3-1.9-11.5-6.3c-1-2-1.1-4.2-0.6-6.3c0.4-2,1.3-3.8,2.4-5.6c0.7-1.1,1.4-2.2,2.5-2.9
	c0.1-0.1,0.3-0.1,0.4-0.1c1.3,0.1-0.5,3.9-0.7,4.4c-1.2,3.2-1.2,7,0.5,10c1.3,2.2,3.6,3.5,6.1,2.9c3.3-0.8,3.7-4.7,3.5-7.6
	c-0.2-2.6-0.9-5.2-1.9-7.6c-0.5-1.1-1-2.3-1.6-3.3c-0.8-1.3-1.4-2.6-2.3-3.9c-4.5-6.3-8-13.2-9.3-20.9c-9.1,8.3-16.6,28.4-23.2,33.9
	c-3.2,2.7-9.7,1.9-10.6-3.5c-2.7-15.7,14-54.2,9.7-55.7c-2.6-0.9-10.3,21.2-21.7,44.2c-1.8,3.5-9.4-1.1-9.1-3.5
	c0.3-2.8,0.5-5.9,0.7-9.1c-6.6,12.5-11,30.9-21.6,29.7c-8.1-0.8-8.5-20.7-7.4-34.3c-6.4,6.2-12.9,14.9-21,18.4
	c-0.8,20.6-5,38.2-15.3,39.5c-14.1,1.8-19.2-34.5,6.9-41.2c0.2-5.1,0.2-9.8,0.1-18c-1.5,5.1-5.9,15.7-11.8,15.2
	c-5-0.2-6.8-8.2-5.4-15.7c-13,10.7-13.8,30.5-23.3,30.2c-9.7-0.7-14.5-14.1-14.1-26.6c-5.5,2.8-13.1,3.5-16.1,5.7
	c5.2,14-1.4,33.4-17.9,31.1c-7.6-1.1-10.1-14.3,8.2-29c-2.1-7.9-9-14.3-16.5-11.7c-0.2,15-0.3,25.2-0.4,39.3c-0.7,2-8.6,4.4-8.7-0.6
	l0.6-73.5c0.2-4.3,5.9-4.4,10.4-4.5c23.7-1,28.1,27.9,6.2,35.1c7.8,0.5,13.2,4.6,16.3,10.2c3.8-2.4,13.3-3.2,18.3-6.7
	c1.6-10.6,7.2-19.2,17-16.8c11,3.2,5.3,22.9-6.3,18.8c-1,8.8,0.6,26.5,5.7,25.4c1.6,0,7.4-23.9,21.5-30.1c1.9-5.2,5.6-9.4,11-8.8
	c3,0.3,5.5,2.5,6.1,6.2c0.6-2.9,0.6-3.8,0.9-5.2c0.5-2,8-2.1,8-0.6c-0.5,5.9-0.8,25.3-1.2,27.8c6.8-3.1,14.3-14,21.2-18.8
	c0.3-2.2,0.6-4.1,0.8-5.5c1.7-8,10.5-3.1,10-0.3c-2.6,13.4-4.4,41-0.9,40.2c5.8-1.4,11.4-22.3,19.1-32.3c0.4-5,1-10.2,2.1-15.3
	c0.3-1.7,9.7-4.1,9.7-0.3c-1.1,4.8-2.7,19.8-3.7,25.1c7.8-16.8,15.4-39.2,22.1-37.1c18.7,6-9.9,62.4-2.5,60.3c3.6-1,13.8-30,25.6-37
	c0.1-6.3,5-13.4,11.5-14.3c1.1-0.2,2.2-0.1,3.2,0.1c1.4,0.3,2.9,1.2,3.7,2.5c0.5,0.8,0.7,1.7,0.8,2.6c0.2,1.9-0.2,3.8-1.1,5.4
	c-0.9,1.5-2.2,2.5-3.8,3.2c-1.7,0.8-3.6,1-5.3,1.5c1.1,3.3,3.4,6.5,5,9.1C563.2,351.2,569.5,360.1,568.8,370.1z M335.9,303.1
	c-0.7,16.7-0.3,30.4-0.3,30.4C354.2,326.1,352.3,298.9,335.9,303.1z M352.8,354.8c-12.3,11-11.9,18.8-8.4,20.4
	C351.2,376.6,354.1,365.2,352.8,354.8z M388.4,336.5c8.8,4.9,9.2-13.6,6.1-13.1C390.3,324.2,389,331.5,388.4,336.5z M428.1,330.2
	c-4.2,0.2-8.4,20.5-5.9,20.6c1.8,0.1,6.1-11.4,7.2-16.6C429.9,331.9,429.4,330.1,428.1,330.2z M431.9,360.1
	c-21,9.1-14.4,35.1-7.6,33.4C428.4,392.8,431.1,376,431.9,360.1z M552.6,329.7c1.7-0.3,3.3-0.9,4.8-1.6c1.4-0.7,2.6-1.7,2.5-3.3
	c-0.1-0.8-0.3-1.8-1-2.3c-0.7-0.5-1.9-0.4-2.7-0.1c-0.8,0.3-1.5,0.9-2.1,1.6c-0.8,0.9-1.4,1.9-1.9,3.1c-0.1,0.2-0.7,2.8-0.4,2.8
	C552.2,329.7,552.4,329.7,552.6,329.7z M430,398c-5.4,0.2-7.2,12-2.7,12.3C435.1,410.9,434.8,397.8,430,398z M559.9,509
	c0,1-0.9,1.7-1.8,2c-2.2,0.7-4.6-0.3-6.5-1.5c-6.4-3.9-13.6-10.9-13.9-18.8c-0.5-14.5,4.8-52.4,2.2-53.6c-2.4-1.1-7,30.3-9.1,50.3
	c-0.4,4.3-16.1,7.4-17.3,2.4c-5-22.2-7.5-41-7.9-56.5c-24.1,26.8-28.1,51.7-33.9,52.4c-14.4,1.6-15.6-23-13.8-46.1
	c-9.3,16.2-14.9,42.2-29.2,40.7c-12.1-1.3-11-35.2-8.9-52c-10.8,3.4-20.2-4.2-21.6-10.3c-3.9,0.4-7.4,72.9-22.4,69.2
	c-14.3,0-13.4-27.3-7-62.7c-3.1,12.7-12.1,37.6-21,37.6c-13,0-6.9-36.1-5.1-48c0-0.1,0.1-0.3,0.1-0.4c-0.2,0.6-12.6-2.3-13.8-2.6
	c-4.7-1.2-9.3-2.7-13.7-4.6c-8.3-3.6-16.2-9-21-16.9c-1.8-2.9-2.8-5.8-3.3-9.2c-0.3-1.8-0.5-3.8,0-5.6c0.5-1.8,1.8-3.5,3.7-3.9
	c3.5-0.8,6.1,4,4,6.7c-0.7,0.9-2,1.4-3,1c-0.7,5.4,4.4,11.2,8.1,14.6c4.1,3.8,9.1,6.6,14.3,8.6c11.5,4.4,23.4,6.8,35.7,7.4
	c0.1,0,0.2,0,0.2,0c0.3,0,0.6,0,0.9,0.1c1.2-0.2,2.4,0.1,2.9,1.4c0.5,1.1,0.1,2.3-0.3,3.4c0,0,0,0.1,0,0.1
	c-4.6,19.7-7.9,37.9-5.4,38c2.4-0.8,13.8-38.2,15.6-42.2c5.7-3.3,18.8,0.2,17.7,4.1c-5.3,18.3-17,68.7-8.5,68.1
	c6.3-0.5,10.5-60.8,17.8-70c1.9-2.4,6.7-2.2,7-0.2c1.7,10.3,11.3,13.8,19,10c2.2-10.4,13.7-4,13-0.4c-3.4,17.4-5.7,53.4-1.1,52.3
	c7.8-1.9,15.4-31.4,26.1-43.7c1.2-11.2,2.7-21,3.3-25.9c-2.9,0-14-0.6-15.8,2.1c-0.8,0.3-1.8-6.6,2.2-7.9c2.6-0.8,9.9,0.1,14.8,0
	c0.8-4.6,2.2-10.9,3.3-15.4c1.5-4,13.8-7.1,12.9-0.8c-0.5,3.2-3.2,15.3-3.2,15.3c3,0,11.5,0.3,13.4-1.9c1.6-1.9,3.6,4.7,0.2,6.3
	c-2.2,1.9-11,1.7-14.3,1.9c-8.6,52.7-7.7,72.9-3.8,74.3c4,1.4,6.5-24.2,33.8-50.6c0.3-33.1,10.9-49.7,26.1-51.9
	c17.3,1.9,17,41.4-9.8,65.7c-0.4,13.4,3.9,32.5,4.1,38.1c1.7-32.5,7-51.8,15.7-49.6c8.3,1.4,11.4,9.6,12.5,18c0.6,5,0.6,10,0.6,13.7
	c-0.1,7.5-0.8,15.1-1.5,22.6c-0.8,8-1.7,16.3,5,22.2C559,507.2,559.9,508,559.9,509z M521.4,432.1c20.7-27.4,18.1-49.6,9.7-50.4
	C523.6,382,517.2,400.7,521.4,432.1z"/>
<path class="st1" d="M748.8,452.3c0.9,12.3-32.1,10.7-55.5,8.2c0,0,2-16.6,2.7-23.7c0.5-4.1-24.1-8-27.3,0.9
	c-2.5,9.8-1.8,11.6-3.6,21.6c-10.9,0.2-52.1-5-63.7,3.2c-7.5,5.2-1.4,21.8,0.5,21.2c2.7-7.7,16.9-8.9,23.5-9.7
	c11.4-1.4,25.7-2.7,36.9,0.3c-0.1,3.9-1.6,7.6-1.8,11.6c-0.3,5-1.1,10-2.2,14.9c-3.7,16.3-9.2,31.5-18.3,45.6
	c-10.2,16-22.6,30.8-35.8,44.2c-0.3,0.3-0.7,0.7-1.1,0.6c-0.4-0.1-0.6-0.5-0.8-0.9c-4-9.9-7.8-19.7-10.9-29.9
	c-2.8-9-5.7-18.5-5.7-28c0-0.2,13-5.5,14.5-6.6c4.3-3,7.8-6.8,10.1-11.5c11.5-23.9-22.9-27.1-37.3-19.1
	c-10.8,6.1-14.6,22.4-13.9,41.8c-25.6,23.9-43,95.3-61.1,99.7c-10,2.5-5-76.4,2.5-114.6c1.6-8-23.7-21.8-28.4,0.9
	c-0.8,3.7-1.6,8.9-2.3,15.1c-27.6,27.2-55.5,146.4-68.4,143c-15.5-4.1,11.4-71.2,15.2-110.3c0.5-6.1-19.8-15.9-30-21.4
	c5.9-10.7,18.9-54.8-3.9-54.8c-34.3,6.1-37.3,48.9-13.2,61.6c-20.9,55-39.3,103-48.2,102.8c-10.9-0.5,27.7-93.7-12.7-104.2
	c-21.6-3.2-34.6,45.3-45.9,102.3c0.7-10.2,4.5-92.3,7.7-116.7c53.2-39.3,75.7-123.5,25-117.8c-28,1.2-50.3,40.1-58.4,114.6
	c-42.5,22.3-40.8,122.7-70.6,116.5c-33.7-7.1-18.7-180.6,19.3-203.6c38.7-23.4,32.5,74.1-23.7,81c-4.5,0.5-7.3,13.6-3.6,13.2
	c70.1-7.3,83.7-122.1,23.4-107.1c-79.4,28.7-82.6,227.4-18,227.2c43.7,3.3,41.6-78.9,71.8-112.6c-2.7,34.6-2.6,76.1,1,124.2
	c0.7,9.3,30.7,10.2,32.3,2.3c19.1-99.8,37.1-119,36.8-114.2c-2.3,43.2-28.7,111.9,18.4,105.1c8.9-1.4,35.3-48.2,57.3-104.8
	c3.2,2,5.2,4.1,5,5.5c-2.7,17.7-45.5,121.2,6.8,127.6c31.9,3.9,52.1-83.3,73.9-129.5c-1.6,37,1.9,80.7,22,82.8
	c34.7,3.7,46.2-66.6,70.9-99.8c2.9,23,10.5,47.9,19.2,64.5c-38.7,31.4-27.1,69.6-10.5,77.3c13.1,6.1,28.9-2,37.2-12.3
	c15.5-19.4,12.8-50.3,5-72.2c-0.4-1.1-0.8-2.2-0.6-3.3c0.2-0.8,0.6-1.5,1.1-2.2c14.2-20.2,31.7-37.5,44.2-59
	c-3,25.9-7.6,53.5-6.8,79.7c0.6,19.6,3.7,42.6,18.5,57c3.7,3.6,8,6.6,13,7.9c10.7,2.9,22.1-2.3,31-9c5.7-4.2,11.4-9.9,13.7-16.8
	c1.7-5.2,3.5-16.1-5.6-13.9c-2.4,0.6-4.4,2.1-6.4,3.5c-5,3.6-10.9,7.2-17,6.2c-5.3-0.8-9.6-4.9-11.8-9.7
	c-7.7-16.2-3.4-40.3-2.6-57.5c1.7-39.1,5.3-78.2,9.8-117.1c28.2,1.2,46,0.6,55.8-1.4c4.6-0.9,7.5-2.2,8.8-3.6
	C765.6,455.5,748.4,447,748.8,452.3z M589.6,513c2.4-5.7,7.8-7.1,11.2-4.2c-0.1,0.9-0.3,1.8-0.7,2.7c-1.1,2.3-3,4.1-4.9,5.7
	c-2.7,2.3-5.8,4.2-8.8,6.1C587.1,519.8,588.1,516.4,589.6,513z M300.8,434.3c15,3,12.7,51.9-32.5,93.5
	C266.4,470,286.9,433.4,300.8,434.3z M374.2,542.1c-13.6-6.6-7.7-34.1,6.8-30C385.6,513.4,377.4,533,374.2,542.1z M571.2,680.4
	c-7.3-2.7-15.2-30.2,13.4-52.8C603.5,678.6,574.6,682.2,571.2,680.4z M505.6,479.3c-2.4-3.8-6.6-5.3-10.9-5.4
	c-5.7-0.1-10.6,2.5-12.4,8.1c-0.4,1.4-0.7,2.8-0.7,4.2c0,0.1,0,0.2,0,0.3c-0.3,4.5,1.5,9.3,5.5,11.6c0.2,0.1,0.4,0.2,0.6,0.3
	c2.6,1.8,6,2.4,9.7,1.2c0.6-0.2,1.2-0.4,1.7-0.7C506.4,495.9,509.9,486.2,505.6,479.3z"/>
<path class="st0" d="M194.5,322.2c-0.1-2.1-1-4.3-2.6-5.7c-2.9-2.5-7.1-2.6-11-3.2c-7.8-1.3-15-5.8-19.8-12.1
	c-2.4-3.1-4.3-6.7-5.2-10.5c-1.1-4.6-0.9-9.5-2.1-14.2c-1.9-7.1-8.5-15-16.5-11.8c-11.7,4.7-8.1,20.5-3.3,28.9
	c0.6,1.1,1.3,2.2,2,3.2c-0.7-1-5.8-1.6-7-1.9c-9.2-2.1-18.9-4-28.3-3.2c-6.8,0.6-13.6,2.7-19.1,6.7c-4.4,3.2-6.7,7.2-8.4,12.3
	c-1.8,5.2-0.8,10.2,2.1,14.8c2.5,3.9,6.9,5.3,11.3,6.1c9,1.6,18.5-0.3,27.3-2.6c10.2-2.7,20.4-4.9,31-5c1.9,0,3.9,0.1,5.8,0.2
	c-4,1.4-7.8,3.3-11.5,5.7c-10,6.8-23.7,21.8-17.3,34.9c2.3,4.7,7.2,8.2,12.5,7.7c6.5-0.6,10.5-6.2,13.3-11.5
	c4.4-8.6,8.2-17.5,13.5-25.7c2.2-3.3,4.5-6.6,7.8-8.8c3.3-2.2,7.7-3.1,11.2-1.4c2.2,1.1,3.9,3,6,4.3c1.2,0.7,2.6,1.3,3.9,0.9
	c2.4-0.8,4-4.4,4.4-6.8C194.5,323.2,194.5,322.7,194.5,322.2z"/>
<path class="st3" d="M168,701.6c-14.9-0.1-28.8-4-39.1-15.3c-7.9-8.6-12.6-19.4-18.2-29.5c-8-14.4-19.9-27.4-35.1-31.7
	c3.1-11.4,4.4-23.2,5.3-34.9c1.3-16.3,1.6-32.8,5.1-48.8c1.8-8,4.2-15.9,8.1-23.1c3.8-6.8,8.5-14.6,16.7-16.3c1-0.2,0.8-1.9-0.3-1.9
	c-25.4,1.4-34.5,27.9-38,49.5c-3.9,24.5-2,50.1-9,74c-2.7,0.1-5.5,0.4-8.4,1.1c-10.3,2.4-23.3,9.9-28.1,19.8
	c-6.3,12.7,10.7,18.9,20.4,16.7c12.6-2.8,20-14,24.5-25.3c16.9,5.2,25.9,22.9,35.5,37.3c6.5,9.8,13.4,19.4,23.2,26.1
	c10.7,7.3,25.2,10.5,37.8,6.6C171,705.2,170.6,701.7,168,701.6z M36.4,649.5c-5-3.2,5.6-10.2,8.7-11.7c4.4-2.2,9.7-3.2,14.7-3.4
	c-1.6,3.5-3.6,6.9-6.2,9.7C50,647.9,41.8,652.9,36.4,649.5z"/>
</svg>
